<?xml version="1.0" encoding="UTF-8"?>
<svg version="1.1" xmlns="http://www.w3.org/2000/svg" width="269" height="267">
<path d="M0 0 C1.61621246 -0.00744736 1.61621246 -0.00744736 3.26507568 -0.01504517 C6.81873218 -0.02961069 10.37234398 -0.03646106 13.92602539 -0.04199219 C15.14631502 -0.04481956 16.36660465 -0.04764694 17.62387276 -0.05056 C24.08730408 -0.06553362 30.55071321 -0.07477337 37.01416016 -0.07910156 C43.65440509 -0.08378441 50.2944645 -0.10856739 56.93465328 -0.13707352 C62.07115752 -0.15580725 67.20761314 -0.16091129 72.34414864 -0.16243744 C74.78988329 -0.16544259 77.23561754 -0.17339775 79.68131828 -0.18662262 C106.96691295 -0.32358167 130.07703138 3.15343573 150.39868164 22.91113281 C170.55342405 43.40931046 171.40584942 68.00655486 171.42211914 94.98925781 C171.42855828 97.50828118 171.43528744 100.02730382 171.44229126 102.54632568 C171.45422182 107.81133223 171.45806285 113.07629177 171.45678711 118.34130859 C171.45572008 123.7141506 171.46979259 129.08670458 171.49780273 134.45947266 C171.53135192 140.99086956 171.54489157 147.52200891 171.54356766 154.05348969 C171.54590801 156.52352105 171.5546418 158.99355586 171.57023239 161.46353912 C171.66466573 177.96742667 171.50287586 194.55643686 163.46118164 209.47363281 C163.12779785 210.11751953 162.79441406 210.76140625 162.45092773 211.42480469 C158.90417425 217.98313624 154.41104316 223.93524642 149.08618164 229.16113281 C148.42618164 229.16113281 147.76618164 229.16113281 147.08618164 229.16113281 C146.72266602 230.04865234 146.72266602 230.04865234 146.35180664 230.95410156 C141.29714871 239.76855135 126.59441776 245.756533 117.10093689 248.34094238 C103.49662908 251.60077815 90.14312951 251.74709632 76.21508789 251.69238281 C73.75666654 251.69508624 71.29824624 251.69897567 68.83982849 251.70397949 C63.71733296 251.70983564 58.59511875 251.70143853 53.47265625 251.68261719 C46.96303909 251.65984278 40.45408245 251.672967 33.94448948 251.69690704 C28.87643107 251.71148102 23.80852478 251.70670609 18.74046135 251.69639587 C16.34270076 251.69375988 13.94492558 251.69688577 11.54718208 251.70631409 C-13.04701821 251.7818307 -34.54691646 249.70956666 -53.91381836 233.16113281 C-55.42975586 232.01644531 -55.42975586 232.01644531 -56.97631836 230.84863281 C-63.40721721 224.9650445 -68.14109418 218.28812988 -72.16381836 210.59863281 C-72.4807666 210.01750732 -72.79771484 209.43638184 -73.12426758 208.83764648 C-81.03038801 192.96107761 -80.49513231 175.48442935 -80.40991211 158.21582031 C-80.41006745 155.63046223 -80.41156226 153.04510393 -80.4143219 150.45974731 C-80.41569857 145.06891559 -80.4037161 139.67837283 -80.38037109 134.28759766 C-80.3537465 128.0975272 -80.35203018 121.90783189 -80.36375946 115.71772373 C-80.3746191 109.70503125 -80.36818154 103.69250718 -80.35420418 97.67981339 C-80.34972259 95.14674391 -80.3493237 92.61366348 -80.35326958 90.08059311 C-80.38073125 56.9547833 -80.38073125 56.9547833 -72.97631836 43.59863281 C-72.64180664 42.95345703 -72.30729492 42.30828125 -71.96264648 41.64355469 C-62.25546733 23.22048827 -46.52616166 9.522478 -26.59741211 3.09082031 C-17.65371079 0.78493486 -9.20161678 0.01022141 0 0 Z M85.21118164 60.28613281 C84.16317383 61.26066406 84.16317383 61.26066406 83.09399414 62.25488281 C82.43141602 62.88394531 81.76883789 63.51300781 81.08618164 64.16113281 C73.72405164 70.60299657 66.9115406 74.65790472 57.46118164 77.16113281 C56.56036865 77.41040527 55.65955566 77.65967773 54.73144531 77.91650391 C47.12235273 79.98245758 39.4446898 81.74765494 31.72241211 83.33691406 C15.19361972 86.8580619 5.4709669 94.08395493 -3.91381836 108.16113281 C-9.64632393 117.27808376 -10.72279733 127.56213711 -9.91381836 138.16113281 C-9.45459776 140.08267601 -8.97598541 141.99970805 -8.47631836 143.91113281 C-7.52885099 148.51029735 -7.52885099 148.51029735 -9.16381836 151.27441406 C-10.39271219 152.59600463 -11.66052669 153.88225068 -12.96069336 155.13378906 C-19.87779919 162.31374492 -22.0553228 172.54190283 -22.27709961 182.18066406 C-21.80524795 184.75301667 -21.03100925 185.65299683 -18.91381836 187.16113281 C-15.26839991 186.92636082 -15.26839991 186.92636082 -11.91381836 186.16113281 C-11.81584961 185.57847656 -11.71788086 184.99582031 -11.61694336 184.39550781 C-10.16857792 176.4544697 -8.4361314 167.94460237 -3.91381836 161.16113281 C-1.78881836 160.47363281 -1.78881836 160.47363281 0.08618164 160.16113281 C0.31305664 160.69738281 0.53993164 161.23363281 0.77368164 161.78613281 C6.16120615 171.53498668 15.91455257 177.03213573 26.27758789 180.44238281 C43.43121372 184.83218414 60.80684209 179.68059165 75.90258789 171.29003906 C81.39069603 167.62007718 85.62699319 163.00621257 90.08618164 158.16113281 C90.94083008 157.3296875 91.79547852 156.49824219 92.67602539 155.64160156 C106.51994815 141.39380423 107.48368163 123.69893711 107.29321289 104.99316406 C106.97378737 90.62685445 103.30571618 78.03810453 97.08618164 65.16113281 C96.76504395 64.4961377 96.44390625 63.83114258 96.11303711 63.14599609 C94.22594895 59.51274833 94.22594895 59.51274833 91.07836914 57.02832031 C88.24919374 57.21693201 87.23951611 58.33925756 85.21118164 60.28613281 Z " fill="#32C166" transform="translate(89.913818359375,7.8388671875)"/>
<path d="M0 0 C0.99 0 1.98 0 3 0 C10.22828374 18.65007561 14.08108591 40.47112802 7.3828125 59.93359375 C-0.04522483 76.40537144 -12.70005672 87.03736106 -28.89453125 94.23828125 C-38.02795739 97.54258199 -51.59776607 97.79785293 -60.6875 94.375 C-67.24361372 91.14263034 -73.22012525 86.52673018 -78 81 C-78 80.01 -78 79.02 -78 78 C-77.09628662 77.76047607 -77.09628662 77.76047607 -76.17431641 77.51611328 C-59.97531703 73.13509713 -43.43529065 67.827765 -31 56 C-30.03161858 52.32075016 -30.03161858 52.32075016 -30 49 C-32.15424056 47.60264182 -32.15424056 47.60264182 -35 47 C-37.9058679 48.70166024 -37.9058679 48.70166024 -41 51 C-50.39890641 57.57570548 -58.90787476 61.90198035 -70 65 C-71.08410156 65.31839844 -72.16820313 65.63679688 -73.28515625 65.96484375 C-80.40351382 68 -80.40351382 68 -84 68 C-86.00350921 57.98245395 -85.46453735 48.00051626 -80.265625 38.99609375 C-68.87491933 22.77096068 -54.30374631 20.13533683 -35.93774414 15.92724609 C-20.24046582 12.3362097 -20.24046582 12.3362097 -6.0625 4.875 C-4.96615234 4.12863281 -4.96615234 4.12863281 -3.84765625 3.3671875 C-1.89193674 1.99047778 -1.89193674 1.99047778 0 0 Z " fill="#32C066" transform="translate(176,82)"/>
<path d="M0 0 C-0.99 0.33 -1.98 0.66 -3 1 C-4.30833059 2.0377377 -5.57575706 3.12790581 -6.8125 4.25 C-7.52019531 4.88164063 -8.22789062 5.51328125 -8.95703125 6.1640625 C-9.96830078 7.07285156 -9.96830078 7.07285156 -11 8 C-18.36213001 14.44186375 -25.17464104 18.49677191 -34.625 21 C-35.52581299 21.24927246 -36.42662598 21.49854492 -37.35473633 21.75537109 C-44.96382891 23.82132477 -52.64149184 25.58652213 -60.36376953 27.17578125 C-74.86649971 30.26531471 -84.80315477 35.93877356 -93.27734375 48.3046875 C-99.87561243 58.62850925 -101.936836 68.72586056 -101 81 C-100.5407794 82.92154319 -100.06216706 84.83857523 -99.5625 86.75 C-98.61503263 91.34916454 -98.61503263 91.34916454 -100.25 94.11328125 C-101.47889383 95.43487182 -102.74670833 96.72111787 -104.046875 97.97265625 C-110.74651211 104.92687957 -113.08914221 114.64111778 -113.125 124 C-113.09329293 125.66688588 -113.05513412 127.33372448 -113 129 C-113.99 128.34 -114.98 127.68 -116 127 C-115.62760039 114.07773364 -113.31563555 105.58908347 -105.5859375 95.2265625 C-102.5645288 91.18697156 -102.5645288 91.18697156 -102.35546875 86.3203125 C-102.56816406 85.22460938 -102.78085938 84.12890625 -103 83 C-104.24590501 66.359111 -101.94478368 54.08527643 -91 41 C-90.40445313 40.2678125 -89.80890625 39.535625 -89.1953125 38.78125 C-79.76286543 28.25577258 -67.57245207 25.39879449 -54.26123047 22.83862305 C-36.07201972 19.33938433 -21.60380936 15.41142059 -8.59375 1.6015625 C-5.5989875 -1.40788021 -3.95535971 -0.93679572 0 0 Z " fill="#EAF9EF" transform="translate(182,65)"/>
<path d="M0 0 C0.33 0 0.66 0 1 0 C3.92095834 17.07454508 3.73945358 35.25550045 -5.625 50.25 C-14.51102755 62.59170494 -26.25058176 72.54988861 -41.1796875 76.58984375 C-45.2276422 77.17853522 -49.22669887 77.22456311 -53.3125 77.25 C-54.53743164 77.2809375 -54.53743164 77.2809375 -55.78710938 77.3125 C-61.53626878 77.34914803 -65.72955708 76.3046816 -71 74 C-67.29104084 72.83175956 -64.97837575 73.51091379 -61.24609375 74.50390625 C-50.03451934 76.98020181 -36.65813901 73.37102463 -27.0390625 67.390625 C-26.02972656 66.70226562 -26.02972656 66.70226562 -25 66 C-24.26523438 65.52046875 -23.53046875 65.0409375 -22.7734375 64.546875 C-10.8963567 56.13904461 -3.07307446 43.08213372 -0.3815918 28.89404297 C0.34267866 23.40107946 0.20514409 17.90494224 0.125 12.375 C0.11597656 11.18003906 0.10695313 9.98507813 0.09765625 8.75390625 C0.07431077 5.83572166 0.04156656 2.91797224 0 0 Z " fill="#EAF8EF" transform="translate(184,101)"/>
<path d="M0 0 C2.6875 0.4375 2.6875 0.4375 4.6875 1.4375 C4.3575 2.0975 4.0275 2.7575 3.6875 3.4375 C3.15125 3.19 2.615 2.9425 2.0625 2.6875 C-1.59590717 2.30240451 -3.35745029 4.35513004 -6.3125 6.4375 C-15.71140641 13.01320548 -24.22037476 17.33948035 -35.3125 20.4375 C-36.39660156 20.75589844 -37.48070313 21.07429688 -38.59765625 21.40234375 C-45.71601382 23.4375 -45.71601382 23.4375 -49.3125 23.4375 C-49.3125 22.7775 -49.3125 22.1175 -49.3125 21.4375 C-48.664021 21.26734375 -48.01554199 21.0971875 -47.34741211 20.921875 C-25.21589204 15.21992503 -25.21589204 15.21992503 -6.25 2.9375 C-3.3125 0.4375 -3.3125 0.4375 0 0 Z " fill="#EDF9F1" transform="translate(141.3125,126.5625)"/>
<path d="M0 0 C0.66 0.33 1.32 0.66 2 1 C1.34644531 1.69222656 1.34644531 1.69222656 0.6796875 2.3984375 C-4.49517831 8.06614767 -8.56653204 14.13306407 -12 21 C-12.66 21 -13.32 21 -14 21 C-12.04198104 12.73280883 -6.19013532 5.62739575 0 0 Z " fill="#F0FBF4" transform="translate(96,101)"/>
<path d="M0 0 C0.66 0.33 1.32 0.66 2 1 C0.88200014 2.33920838 -0.24461897 3.67122556 -1.375 5 C-2.00148438 5.7425 -2.62796875 6.485 -3.2734375 7.25 C-4.12808594 8.11625 -4.12808594 8.11625 -5 9 C-5.66 9 -6.32 9 -7 9 C-5.44499019 5.18315774 -2.96404505 2.80804268 0 0 Z " fill="#F9FDFA" transform="translate(96,101)"/>
<path d="M0 0 C0.66 0.33 1.32 0.66 2 1 C0.68 3.31 -0.64 5.62 -2 8 C-2.66 8 -3.32 8 -4 8 C-2.87548273 5.0280615 -1.77706209 2.66559313 0 0 Z " fill="#F6FCF8" transform="translate(75,162)"/>
</svg>
